<mxfile host="app.diagrams.net" modified="2021-07-02T12:04:42.751Z" agent="5.0 (Windows)" etag="Y9iXeThxLwz-IM1xDyaK" version="14.8.3" type="github">
  <diagram id="NBTfgkhTSXuuio7FdHLs" name="Page-1">
    <mxGraphModel dx="1108" dy="673" grid="1" gridSize="10" guides="1" tooltips="1" connect="1" arrows="1" fold="1" page="1" pageScale="1" pageWidth="850" pageHeight="1100" math="0" shadow="0">
      <root>
        <mxCell id="0" />
        <mxCell id="1" parent="0" />
      </root>
    </mxGraphModel>
  </diagram>
</mxfile>
